M48
INCH,TZ
T1C0.016
T2C0.024
T3C0.031
T4C0.035
T5C0.039
T6C0.051
%
G90
G05
T1
X3925Y-75925
X5290Y-75591
X5790Y-77025
X5815Y-75720
X10917Y-75920
X12132Y-74083
X12357Y-38570
X13547Y-41427
X14166Y-29950
X16511Y-32811
X16640Y-74395
X16740Y-75250
X16757Y-31548
X17023Y-29320
X17380Y-74810
X17885Y-33570
X18659Y-36070
X19298Y-37570
X19298Y-38070
X19298Y-38570
X19298Y-41427
X19542Y-27400
X20182Y-35570
X20182Y-36070
X20348Y-26220
X20663Y-16298
X20663Y-35324
X21006Y-15669
X21006Y-35324
X21310Y-33295
X22560Y-26215
X25808Y-33803
X25910Y-26220
X26515Y-29815
X27860Y-31010
X28050Y-24560
X28115Y-30340
X28535Y-22685
X28960Y-21545
X29230Y-24925
X29550Y-33803
X29890Y-22775
X30100Y-33300
X30340Y-33080
X32320Y-48943
X32897Y-24560
X39358Y-64300
X39780Y-22880
X41920Y-37940
X49862Y-12666
X50405Y-38445
X50855Y-41591
X51320Y-55562
X52255Y-34570
X52363Y-33570
X52550Y-38485
X52619Y-37070
X52678Y-34070
X52678Y-35070
X53633Y-36629
X53948Y-44187
X54313Y-38025
X54637Y-39116
X54963Y-36078
X55125Y-38755
X55125Y-39070
X56000Y-44680
X59131Y-34070
X59653Y-43731
T2
X12729Y-70680
X13320Y-70680
X19980Y-70740
X20571Y-70740
X29169Y-19960
X29760Y-19960
X43420Y-19980
X44011Y-19980
T3
X34120Y-53640
X34120Y-56640
X35120Y-53640
X35120Y-56640
X36120Y-53640
X36120Y-56640
X37120Y-53640
X37120Y-56640
X38120Y-53640
X38120Y-56640
X39120Y-53640
X39120Y-56640
T4
X10100Y-26480
X10100Y-26980
X10100Y-27480
X10100Y-27980
X10120Y-43700
X10120Y-44200
X10120Y-44700
X10120Y-45200
X19500Y-58380
X20000Y-58380
X20280Y-12560
X20280Y-13060
X20280Y-13560
X20280Y-14060
X20500Y-58380
X21000Y-58380
X27180Y-35800
X28180Y-35800
X35860Y-8000
X36100Y-44720
X36120Y-26900
X36360Y-8000
X36620Y-62900
X36620Y-63400
X36620Y-63900
X36620Y-64400
X36860Y-8000
X37100Y-44720
X37120Y-26900
X37360Y-8000
X45060Y-35820
X46060Y-35820
X52200Y-58320
X52220Y-13280
X52700Y-58320
X52720Y-13280
X53200Y-58320
X53220Y-13280
X53700Y-58320
X53720Y-13280
X63080Y-43680
X63080Y-44180
X63080Y-44680
X63080Y-45180
X63120Y-26480
X63120Y-26980
X63120Y-27480
X63120Y-27980
T5
X1240Y-75240
X1240Y-76240
X1240Y-77240
X2240Y-75240
X2240Y-76240
X2240Y-77240
X4360Y-73700
X5360Y-73700
X15300Y-77080
X15660Y-70780
X16284Y-77080
X16660Y-70780
X17269Y-77080
X17660Y-70780
X18253Y-77080
X19237Y-77080
X23020Y-19800
X24004Y-19800
X24989Y-19800
X25973Y-19800
X26957Y-19800
X35620Y-18680
X36620Y-18680
X37620Y-18680
X46240Y-19920
X47224Y-19920
X48209Y-19920
X49193Y-19920
X50177Y-19920
T6
X11345Y-72460
X21975Y-72460
X23100Y-75460
X23100Y-77429
X31305Y-17020
X41935Y-17020
T0
M30
